<?xml version="1.0" encoding="utf-8"?>
<svg viewBox="0 0 500 500" xmlns="http://www.w3.org/2000/svg">
  <path style="fill: rgb(216, 216, 216); stroke-width: 23px; stroke: rgb(42, 63, 96);" d="M 141.461 94.65 C 141.461 104.299 147.946 112.832 152.778 120.885 C 158.946 131.165 165.437 143.843 168.724 155.35 C 177.036 184.442 180.041 214.513 180.041 244.856 C 180.041 255.756 180.814 266.97 179.012 277.778 C 177.098 289.262 172.15 300.661 168.724 311.728 C 165.185 323.162 163.939 341.428 156.893 350.823"/>
  <path style="fill: rgb(216, 216, 216); stroke-width: 23px; stroke: rgb(42, 63, 96);" d="M 147.634 186.214 C 156.675 192.672 169.435 191.358 180.041 191.358 C 185.014 191.358 190.076 192.297 194.959 191.358 C 200.007 190.387 205.597 186.357 209.877 184.156 C 233.138 172.193 259.12 150.334 269.033 125 C 272.149 117.038 272.585 108.148 273.663 99.794 C 275.313 87.003 277.778 74.609 277.778 61.728"/>
  <path style="fill: rgb(216, 216, 216); stroke-width: 23px; stroke: rgb(42, 63, 96);" d="M 150.72 246.914 C 157.97 239.664 167.899 234.466 176.955 229.938 C 190.052 223.39 204.658 219.052 219.65 221.193 C 224.024 221.818 227.739 224.714 231.481 226.852 C 249.408 237.096 261.757 253.82 272.119 271.091 C 275.911 277.41 274.691 290.24 274.691 297.325 C 274.691 318.508 278.292 337.824 278.292 358.539"/>
</svg>